IKResults
version=1
nRows=10
nColumns=40
inDegrees=yes

Units are S.I. units (second, meters, Newtons, ...)
Angles are in degrees.

endheader
time	pelvis_tilt	pelvis_list	pelvis_rotation	pelvis_tx	pelvis_ty	pelvis_tz	hip_flexion_r	hip_adduction_r	hip_rotation_r	knee_angle_r	knee_angle_r_beta	ankle_angle_r	subtalar_angle_r	mtp_angle_r	hip_flexion_l	hip_adduction_l	hip_rotation_l	knee_angle_l	knee_angle_l_beta	ankle_angle_l	subtalar_angle_l	mtp_angle_l	lumbar_extension	lumbar_bending	lumbar_rotation	arm_flex_r	arm_add_r	arm_rot_r	elbow_flex_r	pro_sup_r	wrist_flex_r	wrist_dev_r	arm_flex_l	arm_add_l	arm_rot_l	elbow_flex_l	pro_sup_l	wrist_flex_l	wrist_dev_l
      0.27000000	      0.03382598	     -1.13413303	     -0.12767916	     -0.22964111	      0.92230858	     -0.99441185	      1.79306723	      3.61874678	    -10.61092662	    -15.65503162	     -0.27323185	     11.93059538	    -10.66640024	      2.07299867	     20.66205850	      3.97332420	      5.51243640	    -40.79492051	     -0.71200568	     12.38250723	     18.51064574	     15.66362350	     -4.30193650	      0.64418028	     -0.88758884	      4.07483303	    -14.02841097	      1.85855588	     36.92280679	     89.95437384	      0.00000000	      0.00000000	     -2.36523068	      6.46867388	     18.60550642	     12.88528908	     89.95437384	      0.00000000	      0.00000000
      0.28000000	      0.10684981	     -1.01696614	     -0.10905499	     -0.22013356	      0.92163590	     -0.99418026	      0.94914977	      3.58343419	    -10.32181083	    -15.45206857	     -0.26968947	     12.29709424	    -11.06882662	      2.11547095	     21.00281287	      3.83520205	      5.81323336	    -38.55489239	     -0.67290982	     11.93072432	     18.37191660	     13.84696019	     -4.37731151	      0.47463087	     -0.92529803	      4.76229711	    -14.22538450	      1.79083654	     37.72863514	     89.95437384	      0.00000000	      0.00000000	     -3.34566707	      6.49672660	     17.87543333	     12.48353695	     89.95437384	      0.00000000	      0.00000000
      0.29000000	      0.08239473	     -0.80403924	     -0.17338648	     -0.21077588	      0.92076535	     -0.99390514	      0.34331658	      3.39243174	    -10.12077031	    -15.48303155	     -0.27022988	     12.67268460	    -11.26532229	      2.22365180	     21.34036353	      3.59973564	      6.17980454	    -36.13085942	     -0.63060246	     11.59579560	     18.17589660	     13.06577697	     -4.37290018	      0.19066804	     -0.89109563	      5.44661584	    -14.36613046	      1.62670262	     38.44161161	     89.95437384	      0.00000000	      0.00000000	     -4.38175545	      6.52529782	     17.06783300	     12.31439613	     89.95437384	      0.00000000	      0.00000000
      0.30000000	      0.01267411	     -0.63728513	     -0.15739090	     -0.20138207	      0.91973757	     -0.99381143	     -0.22938459	      3.25013074	     -9.92315001	    -15.48582917	     -0.27027871	     13.08936074	    -11.46242276	      2.36584459	     21.72255302	      3.37448459	      6.53925858	    -33.65875639	     -0.58745612	     11.25161360	     17.88973866	     12.23517374	     -4.29582769	     -0.02922003	     -0.93945225	      6.09383783	    -14.50062268	      1.47715363	     39.15726539	     89.95437384	      0.00000000	      0.00000000	     -5.47585092	      6.55492693	     15.96071647	     12.19518790	     89.95437384	      0.00000000	      0.00000000
      0.31000000	     -0.12908550	     -0.49356810	     -0.10666554	     -0.19188380	      0.91848965	     -0.99383563	     -0.73131595	      3.13606377	     -9.70115568	    -15.52203273	     -0.27091058	     13.49385951	    -11.64529278	      2.55244348	     22.11250002	      3.13481243	      6.84105085	    -31.10543636	     -0.54289228	     10.70303314	     17.50782875	     11.34528117	     -4.12718143	     -0.21758782	     -0.98372269	      6.67164893	    -14.63855484	      1.32348139	     39.83020417	     89.95437384	      0.00000000	      0.00000000	     -6.52639834	      6.53822628	     15.16715622	     12.13872710	     89.95437384	      0.00000000	      0.00000000
      0.32000000	     -0.23503758	     -0.36374532	     -0.09090873	     -0.18229799	      0.91719103	     -0.99379981	     -1.25270582	      3.02609467	     -9.52124025	    -15.58400661	     -0.27199223	     13.92676559	    -11.81424972	      2.77440797	     22.37698866	      2.94623481	      7.28342816	    -28.46341187	     -0.49678025	     10.14382279	     17.02514594	     10.25992651	     -3.99869738	     -0.39708676	     -0.96957031	      7.17411947	    -14.77804513	      1.16507749	     40.54310834	     89.95437384	      0.00000000	      0.00000000	     -7.57675460	      6.52992160	     14.33152879	     12.19636420	     89.95437384	      0.00000000	      0.00000000
      0.33000000	     -0.31947221	     -0.26734247	     -0.06998384	     -0.17241580	      0.91584085	     -0.99384886	     -1.84753046	      2.94763925	     -9.36133646	    -15.59283609	     -0.27214633	     14.39314262	    -11.99008708	      3.01738958	     22.54377183	      2.81063715	      7.85907722	    -25.76218614	     -0.44963497	      9.52515403	     16.36243906	      8.92182556	     -3.84502286	     -0.52020342	     -0.94344444	      7.61955252	    -14.88460154	      0.88445027	     41.22111647	     89.95437384	      0.00000000	      0.00000000	     -8.65174176	      6.52889976	     13.46062049	     12.27308039	     89.95437384	      0.00000000	      0.00000000
      0.34000000	     -0.29021921	     -0.35073503	     -0.04321742	     -0.16233708	      0.91454142	     -0.99365597	     -2.70316174	      3.15419474	     -8.92221866	    -15.38760482	     -0.26856437	     14.75539604	    -12.19879181	      4.05923114	     22.66093144	      3.02965528	      8.99344949	    -23.26650552	     -0.40607713	      8.69940381	     15.71106593	      3.80673940	     -3.82072706	     -0.47402440	     -0.86652241	      7.97616637	    -14.98422624	      0.48743394	     41.96013273	     89.95437384	      0.00000000	      0.00000000	     -9.71747684	      6.54177463	     12.58181708	     12.53028020	     89.95437384	      0.00000000	      0.00000000
      0.35000000	     -0.73139979	     -0.46023933	      0.02403469	     -0.15269017	      0.91238272	     -0.99378003	     -2.78990540	      3.28493150	     -8.86283422	    -15.59933670	     -0.27225979	     15.15198368	    -12.29299807	      4.03513200	     23.36862212	      3.06379967	      9.53396634	    -21.04819533	     -0.36736031	      8.47544056	     14.91055954	      3.62596307	     -3.28904751	     -0.37378313	     -0.84150788	      8.25986390	    -15.17445554	      0.35305145	     42.67306874	     89.95437384	      0.00000000	      0.00000000	    -10.63049415	      6.43834770	     12.66167544	     12.57291899	     89.95437384	      0.00000000	      0.00000000
      0.36000000	     -0.59380540	     -0.11517375	     -0.28415914	     -0.14246432	      0.91113365	     -0.99380025	     -3.49439014	      2.84755529	     -8.53096072	    -15.90759270	     -0.27763987	     15.73128456	    -12.38032898	      4.19302239	     23.13638114	      2.80936796	     11.24513397	    -18.56287658	     -0.32398331	      7.92814052	     13.66647503	      2.74773341	     -3.38905332	     -0.76346077	     -0.42265344	      8.56562887	    -15.26032142	     -0.07043453	     43.32625534	     89.95437384	      0.00000000	      0.00000000	    -11.45926501	      6.34634246	     12.90696406	     12.62325994	     89.95437384	      0.00000000	      0.00000000
